<svg xmlns="http://www.w3.org/2000/svg" width="182" height="182" viewBox="0 0 182 182">
  <g id="그룹_24" data-name="그룹 24" transform="translate(-755 -48)">
    <path id="패스_16" data-name="패스 16" d="M6,0H176a6,6,0,0,1,6,6V176a6,6,0,0,1-6,6H6a6,6,0,0,1-6-6V6A6,6,0,0,1,6,0Z" transform="translate(755 48)" fill="#333"/>
    <path id="패스_17" data-name="패스 17" d="M49.848-16.74a1.465,1.465,0,0,1-1.24,1.55,12.416,12.416,0,0,1-2.976.31,9.458,9.458,0,0,1-3.1-.4,1.472,1.472,0,0,1-1.116-1.457V-46.686h8.432ZM40.8-5.208H12.152v-7.006H46a3.366,3.366,0,0,1,2.418.775,3.761,3.761,0,0,1,.806,2.759V9.176a1.38,1.38,0,0,1-1.24,1.488,15.4,15.4,0,0,1-2.976.248,12.123,12.123,0,0,1-3.1-.31A1.364,1.364,0,0,1,40.8,9.176ZM24.49-31.558a8.023,8.023,0,0,0-.5-2.821,6.526,6.526,0,0,0-1.426-2.294,7.194,7.194,0,0,0-2.232-1.55,7.149,7.149,0,0,0-2.976-.589,6.992,6.992,0,0,0-2.914.589,7.194,7.194,0,0,0-2.232,1.55,6.526,6.526,0,0,0-1.426,2.294,8.023,8.023,0,0,0-.5,2.821,7.125,7.125,0,0,0,1.891,5.022A6.7,6.7,0,0,0,17.36-24.49,6.78,6.78,0,0,0,22.6-26.536,7.125,7.125,0,0,0,24.49-31.558Zm8.184,0a13.472,13.472,0,0,1-1.147,5.549,13.834,13.834,0,0,1-3.193,4.5,14.754,14.754,0,0,1-4.867,3.007,16.869,16.869,0,0,1-6.107,1.085,16.622,16.622,0,0,1-6.076-1.085,14.826,14.826,0,0,1-4.836-3.007,13.834,13.834,0,0,1-3.193-4.5,13.472,13.472,0,0,1-1.147-5.549,13.905,13.905,0,0,1,1.147-5.611,13.658,13.658,0,0,1,3.193-4.557,15.255,15.255,0,0,1,4.836-3.038A16.212,16.212,0,0,1,17.36-45.88a16.452,16.452,0,0,1,6.107,1.116,15.174,15.174,0,0,1,4.867,3.038,13.658,13.658,0,0,1,3.193,4.557A13.905,13.905,0,0,1,32.674-31.558ZM66.836-19.034a4.988,4.988,0,0,1-2.6-.9,14.188,14.188,0,0,1-2.48-1.953,12.066,12.066,0,0,1-1.767-2.263,4.552,4.552,0,0,1-.775-2.325V-45.26H87.3v3.1h9.92v-4.526h8.432v29.512a1.509,1.509,0,0,1-1.116,1.519,9.458,9.458,0,0,1-3.1.4,9.458,9.458,0,0,1-3.1-.4,1.509,1.509,0,0,1-1.116-1.519V-22.63H87.234q-.558,3.6-4.34,3.6ZM88.784,11.718A17.6,17.6,0,0,1,82.739,10.7,15.5,15.5,0,0,1,77.81,7.843a13.465,13.465,0,0,1-3.317-4.309A12.143,12.143,0,0,1,73.284-1.86a12.143,12.143,0,0,1,1.209-5.394,13.465,13.465,0,0,1,3.317-4.309,15.5,15.5,0,0,1,4.929-2.852,18.372,18.372,0,0,1,12.09,0,15.5,15.5,0,0,1,4.929,2.852,13.465,13.465,0,0,1,3.317,4.309,12.143,12.143,0,0,1,1.209,5.394,12.143,12.143,0,0,1-1.209,5.394,13.465,13.465,0,0,1-3.317,4.309A15.5,15.5,0,0,1,94.829,10.7,17.6,17.6,0,0,1,88.784,11.718Zm0-6.882a6.849,6.849,0,0,0,5.208-1.953,6.625,6.625,0,0,0,1.86-4.743A6.625,6.625,0,0,0,93.992-6.6a6.849,6.849,0,0,0-5.208-1.953A6.849,6.849,0,0,0,83.576-6.6a6.624,6.624,0,0,0-1.86,4.743,6.624,6.624,0,0,0,1.86,4.743A6.849,6.849,0,0,0,88.784,4.836ZM79.05-38.316H67.456V-27.28a1.151,1.151,0,0,0,1.3,1.3H79.05ZM87.3-29.45h9.92v-5.89H87.3Z" transform="translate(790 122)" fill="#eee"/>
    <path id="패스_18" data-name="패스 18" d="M39.556-46.686h8.432v10.54H57.35v7.13H47.988v10.974a1.509,1.509,0,0,1-1.116,1.519,9.458,9.458,0,0,1-3.1.4,9.458,9.458,0,0,1-3.1-.4,1.509,1.509,0,0,1-1.116-1.519ZM11.1-13.33h36.27V5.89a4.764,4.764,0,0,1-1.085,3.348,4.474,4.474,0,0,1-3.441,1.178H18.662a4.878,4.878,0,0,1-2.6-.868A14.129,14.129,0,0,1,13.64,7.626a13.1,13.1,0,0,1-1.767-2.2A4.056,4.056,0,0,1,11.1,3.348ZM19.53,2.17q0,1.178,1.116,1.178h18.29v-9.61H19.53ZM11.656-27.28a1.151,1.151,0,0,0,1.3,1.3H33.852a1.294,1.294,0,0,1,1.364.868,8.224,8.224,0,0,1,.31,2.6,8.182,8.182,0,0,1-.31,2.635,1.3,1.3,0,0,1-1.364.837H11.036a4.988,4.988,0,0,1-2.6-.9,14.188,14.188,0,0,1-2.48-1.953,12.066,12.066,0,0,1-1.767-2.263,4.552,4.552,0,0,1-.775-2.325V-45.26H30.38a1.3,1.3,0,0,1,1.364.837,7.921,7.921,0,0,1,.31,2.573,8.489,8.489,0,0,1-.31,2.666,1.294,1.294,0,0,1-1.364.868H11.656Zm92.194,11.1a39.707,39.707,0,0,1-4.712-2.232A49.689,49.689,0,0,1,94.3-21.452a39.292,39.292,0,0,1-4.371-3.6,22.534,22.534,0,0,1-3.317-3.906,20.339,20.339,0,0,1-3.348,3.968A48.624,48.624,0,0,1,78.709-21.2a55.181,55.181,0,0,1-4.96,3.255,41.618,41.618,0,0,1-4.557,2.325,1.754,1.754,0,0,1-1.984-.217,10.389,10.389,0,0,1-1.674-2.015,6.956,6.956,0,0,1-1.178-2.511,1.3,1.3,0,0,1,.806-1.4,68.065,68.065,0,0,0,8.9-5.394,21.7,21.7,0,0,0,5.8-5.828,10.61,10.61,0,0,0,1.55-3.813,21.672,21.672,0,0,0,.31-3.627v-2.914h8.928v3.162a18.746,18.746,0,0,0,.31,3.534,10.848,10.848,0,0,0,1.55,3.6,19.453,19.453,0,0,0,2.852,3.1,45.1,45.1,0,0,0,3.72,2.976q1.984,1.426,4.092,2.666t3.968,2.108q1.054.5.992,1.333a6.5,6.5,0,0,1-.93,2.387,9.322,9.322,0,0,1-1.488,2.2Q105.09-15.686,103.85-16.182ZM81.9-18.228h8.556V-5.952h20.708a1.488,1.488,0,0,1,1.581.93,8.343,8.343,0,0,1,.341,2.728,8.051,8.051,0,0,1-.341,2.7,1.493,1.493,0,0,1-1.581.9H59.83V-5.952H81.9Z" transform="translate(790 195)" fill="#eee"/>
  </g>
</svg>
