<svg xmlns="http://www.w3.org/2000/svg" width="23.625" height="27" viewBox="0 0 23.625 27">
  <path id="Icon_metro-file-picture" data-name="Icon metro-file-picture" d="M24.749,25.553H7.874V22.178l5.062-8.437,6.935,8.437L24.749,18.8Zm0-10.969a2.531,2.531,0,1,1-2.531-2.531A2.531,2.531,0,0,1,24.749,14.584Zm2.262-6.616a23.909,23.909,0,0,0-2.3-2.629,23.914,23.914,0,0,0-2.629-2.3,4.206,4.206,0,0,0-2.4-1.113H6.608A2.112,2.112,0,0,0,4.5,4.037V26.819a2.112,2.112,0,0,0,2.109,2.109H26.014a2.112,2.112,0,0,0,2.109-2.109V10.366a4.205,4.205,0,0,0-1.113-2.4ZM23.519,6.532a23.014,23.014,0,0,1,1.914,2.146H21.374V4.619a22.991,22.991,0,0,1,2.146,1.914Zm2.917,20.286a.428.428,0,0,1-.422.422H6.608a.428.428,0,0,1-.422-.422V4.037a.428.428,0,0,1,.422-.422H19.686V9.522a.844.844,0,0,0,.844.844h5.906Z" transform="translate(-4.499 -1.928)" fill="#fff"/>
</svg>
